<?xml version="1.0" encoding="UTF-8" standalone="no"?>
<!DOCTYPE svg PUBLIC "-//W3C//DTD SVG 1.1//EN" "http://www.w3.org/Graphics/SVG/1.1/DTD/svg11.dtd">
<svg width="100%" height="100%" viewBox="0 0 1440 900" version="1.1" xmlns="http://www.w3.org/2000/svg" xmlns:xlink="http://www.w3.org/1999/xlink" xml:space="preserve" style="fill-rule:evenodd;clip-rule:evenodd;stroke-linejoin:round;stroke-miterlimit:1.41421;">
    <rect x="0" y="0" width="1440" height="900" style="fill:rgb(218,218,218);"/>
    <g transform="matrix(1,0,0,1,0,84.6587)">
        <g transform="matrix(1.33166,0,0,1.17697,-43.0461,-145.641)">
            <path d="M455.889,220.678C455.889,211.858 449.56,204.697 441.764,204.697L108.79,204.697C100.994,204.697 94.665,211.858 94.665,220.678L94.665,252.64C94.665,261.46 100.994,268.621 108.79,268.621L441.764,268.621C449.56,268.621 455.889,261.46 455.889,252.64L455.889,220.678Z" style="fill:rgb(0,178,255);"/>
        </g>
        <g transform="matrix(2.848,0,0,1,-576.699,-103.759)">
            <clipPath id="_clip1">
                <path d="M569.03,217.85C569.03,207.469 566.071,199.041 562.426,199.041L89.619,199.041C85.974,199.041 83.015,207.469 83.015,217.85L83.015,255.468C83.015,265.849 85.974,274.277 89.619,274.277L562.426,274.277C566.071,274.277 569.03,265.849 569.03,255.468L569.03,217.85Z"/>
            </clipPath>
            <g clip-path="url(#_clip1)">
                <g transform="matrix(1.89606,0,0,0.723034,-335.845,80.7566)">
                    <rect x="341.715" y="127.89" width="271.05" height="163.685" style="fill:white;"/>
                </g>
            </g>
        </g>
        <g transform="matrix(0.866184,0,0,0.866184,45.2658,-186.362)">
            <text x="81.64px" y="391.729px" style="font-family:'Quicksand-Bold', 'Quicksand';font-weight:700;font-size:66.129px;fill:white;">FIELD</text>
        </g>
        <g transform="matrix(0.866184,0,0,0.866184,267.01,-186.318)">
            <text x="81.64px" y="391.729px" style="font-family:'Quicksand-Bold', 'Quicksand';font-weight:700;font-size:66.129px;">VALUE</text>
        </g>
    </g>
    <g transform="matrix(1,0,0,1,0,203.008)">
        <g transform="matrix(1.33166,0,0,1.17697,-43.0461,-145.641)">
            <path d="M455.889,220.678C455.889,211.858 449.56,204.697 441.764,204.697L108.79,204.697C100.994,204.697 94.665,211.858 94.665,220.678L94.665,252.64C94.665,261.46 100.994,268.621 108.79,268.621L441.764,268.621C449.56,268.621 455.889,261.46 455.889,252.64L455.889,220.678Z" style="fill:rgb(0,178,255);"/>
        </g>
        <g transform="matrix(1.36658,0,0,1,-114.397,-103.759)">
            <clipPath id="_clip2">
                <path d="M569.03,217.85C569.03,207.469 562.863,199.041 555.266,199.041L96.779,199.041C89.182,199.041 83.015,207.469 83.015,217.85L83.015,255.468C83.015,265.849 89.182,274.277 96.779,274.277L555.266,274.277C562.863,274.277 569.03,265.849 569.03,255.468L569.03,217.85Z"/>
            </clipPath>
            <g clip-path="url(#_clip2)">
                <g transform="matrix(1.89606,0,0,0.723034,-335.845,80.7566)">
                    <rect x="341.715" y="127.89" width="271.05" height="163.685" style="fill:white;"/>
                </g>
            </g>
        </g>
        <g transform="matrix(0.866184,0,0,0.866184,45.2658,-186.362)">
            <text x="81.64px" y="391.729px" style="font-family:'Quicksand-Bold', 'Quicksand';font-weight:700;font-size:66.129px;fill:white;">FIELD</text>
        </g>
        <g transform="matrix(0.866184,0,0,0.866184,267.01,-186.318)">
            <text x="81.64px" y="391.729px" style="font-family:'Quicksand-Bold', 'Quicksand';font-weight:700;font-size:66.129px;">VALUE</text>
        </g>
    </g>
    <g transform="matrix(1,0,0,1,0,321.358)">
        <g transform="matrix(1.33166,0,0,1.17697,-43.0461,-145.641)">
            <path d="M455.889,220.678C455.889,211.858 449.56,204.697 441.764,204.697L108.79,204.697C100.994,204.697 94.665,211.858 94.665,220.678L94.665,252.64C94.665,261.46 100.994,268.621 108.79,268.621L441.764,268.621C449.56,268.621 455.889,261.46 455.889,252.64L455.889,220.678Z" style="fill:rgb(0,178,255);"/>
        </g>
        <g transform="matrix(2.22173,0,0,1,-381.263,-103.759)">
            <clipPath id="_clip3">
                <path d="M569.03,217.85C569.03,207.469 565.236,199.041 560.564,199.041L91.481,199.041C86.809,199.041 83.015,207.469 83.015,217.85L83.015,255.468C83.015,265.849 86.809,274.277 91.481,274.277L560.564,274.277C565.236,274.277 569.03,265.849 569.03,255.468L569.03,217.85Z"/>
            </clipPath>
            <g clip-path="url(#_clip3)">
                <g transform="matrix(1.89606,0,0,0.723034,-335.845,80.7566)">
                    <rect x="341.715" y="127.89" width="271.05" height="163.685" style="fill:white;"/>
                </g>
            </g>
        </g>
        <g transform="matrix(0.866184,0,0,0.866184,45.2658,-186.362)">
            <text x="81.64px" y="391.729px" style="font-family:'Quicksand-Bold', 'Quicksand';font-weight:700;font-size:66.129px;fill:white;">FIELD</text>
        </g>
        <g transform="matrix(0.866184,0,0,0.866184,267.01,-186.318)">
            <text x="81.64px" y="391.729px" style="font-family:'Quicksand-Bold', 'Quicksand';font-weight:700;font-size:66.129px;">VALUE</text>
        </g>
    </g>
    <g transform="matrix(1,0,0,1,0,439.708)">
        <g transform="matrix(1.33166,0,0,1.17697,-43.0461,-145.641)">
            <path d="M455.889,220.678C455.889,211.858 449.56,204.697 441.764,204.697L108.79,204.697C100.994,204.697 94.665,211.858 94.665,220.678L94.665,252.64C94.665,261.46 100.994,268.621 108.79,268.621L441.764,268.621C449.56,268.621 455.889,261.46 455.889,252.64L455.889,220.678Z" style="fill:rgb(0,178,255);"/>
        </g>
        <g transform="matrix(1.48808,0,0,1,-152.312,-103.759)">
            <clipPath id="_clip4">
                <path d="M569.03,217.85C569.03,207.469 563.366,199.041 556.39,199.041L95.655,199.041C88.679,199.041 83.015,207.469 83.015,217.85L83.015,255.468C83.015,265.849 88.679,274.277 95.655,274.277L556.39,274.277C563.366,274.277 569.03,265.849 569.03,255.468L569.03,217.85Z"/>
            </clipPath>
            <g clip-path="url(#_clip4)">
                <g transform="matrix(1.89606,0,0,0.723034,-335.845,80.7566)">
                    <rect x="341.715" y="127.89" width="271.05" height="163.685" style="fill:white;"/>
                </g>
            </g>
        </g>
        <g transform="matrix(0.866184,0,0,0.866184,45.2658,-186.362)">
            <text x="81.64px" y="391.729px" style="font-family:'Quicksand-Bold', 'Quicksand';font-weight:700;font-size:66.129px;fill:white;">FIELD</text>
        </g>
        <g transform="matrix(0.866184,0,0,0.866184,267.01,-186.318)">
            <text x="81.64px" y="391.729px" style="font-family:'Quicksand-Bold', 'Quicksand';font-weight:700;font-size:66.129px;">VALUE</text>
        </g>
    </g>
    <g transform="matrix(1,0,0,1,0,558.058)">
        <g transform="matrix(1.33166,0,0,1.17697,-43.0461,-145.641)">
            <path d="M455.889,220.678C455.889,211.858 449.56,204.697 441.764,204.697L108.79,204.697C100.994,204.697 94.665,211.858 94.665,220.678L94.665,252.64C94.665,261.46 100.994,268.621 108.79,268.621L441.764,268.621C449.56,268.621 455.889,261.46 455.889,252.64L455.889,220.678Z" style="fill:rgb(0,178,255);"/>
        </g>
        <g transform="matrix(1.19252,0,0,1,-60.0797,-103.759)">
            <clipPath id="_clip5">
                <path d="M569.03,217.85C569.03,207.469 561.963,199.041 553.257,199.041L98.788,199.041C90.083,199.041 83.015,207.469 83.015,217.85L83.015,255.468C83.015,265.849 90.083,274.277 98.788,274.277L553.257,274.277C561.963,274.277 569.03,265.849 569.03,255.468L569.03,217.85Z"/>
            </clipPath>
            <g clip-path="url(#_clip5)">
                <g transform="matrix(1.89606,0,0,0.723034,-335.845,80.7566)">
                    <rect x="341.715" y="127.89" width="271.05" height="163.685" style="fill:white;"/>
                </g>
            </g>
        </g>
        <g transform="matrix(0.866184,0,0,0.866184,45.2658,-186.362)">
            <text x="81.64px" y="391.729px" style="font-family:'Quicksand-Bold', 'Quicksand';font-weight:700;font-size:66.129px;fill:white;">FIELD</text>
        </g>
        <g transform="matrix(0.866184,0,0,0.866184,267.01,-186.318)">
            <text x="81.64px" y="391.729px" style="font-family:'Quicksand-Bold', 'Quicksand';font-weight:700;font-size:66.129px;">VALUE</text>
        </g>
    </g>
    <g transform="matrix(0.487312,0,0,0.487312,71.9276,611.873)">
        <text x="15.875px" y="391.729px" style="font-family:'Quicksand-Bold', 'Quicksand';font-weight:700;font-size:66.129px;">HOVER TO SHOW FIELDS TO EDIT</text>
    </g>
</svg>
