<?xml version="1.0" encoding="UTF-8" standalone="no"?>
<!DOCTYPE svg PUBLIC "-//W3C//DTD SVG 1.1//EN" "http://www.w3.org/Graphics/SVG/1.1/DTD/svg11.dtd">
<svg width="100%" height="100%" viewBox="0 0 318 257" version="1.1" xmlns="http://www.w3.org/2000/svg" xmlns:xlink="http://www.w3.org/1999/xlink" xml:space="preserve" style="fill-rule:evenodd;clip-rule:evenodd;stroke-linejoin:round;stroke-miterlimit:1.41421;">
    <g>
        <path d="M28.942,226.27C28.942,226.27 39.391,194.826 56.85,196.32C73.68,197.76 89.02,206.8 106.01,207.2C117.7,207.03 130.48,192.825 140.51,170.61C148.377,153.185 156.803,114.397 168.842,95.711C182.193,74.986 201.811,56.678 244.16,51.25C249.225,50.601 274.883,47.854 285.741,51.819C296.6,55.784 309.664,62.394 309.28,83.21C309.107,92.619 294.833,110.261 271.911,108.552C254.5,107.254 240.096,94.964 241.39,75.81C236.41,76.34 223.8,77.868 212.48,104.38C205.775,120.082 208.292,149.956 199.52,165.66C191.088,180.754 178.554,193.508 147.77,206.39C147.655,206.389 297.133,206.005 297.224,206C297.697,217.256 278.371,226.239 269.561,226.267C269.152,226.268 269.296,226.27 269.296,226.27L28.942,226.27Z" style="fill:white;"/>
        <path d="M217.748,231.999C196.654,247.703 170.515,257 142.222,257C113.928,257 87.789,247.703 66.696,231.999L217.748,231.999ZM36.16,199.561C23.137,179.66 15.564,155.878 15.564,130.342C15.564,60.437 72.317,3.684 142.222,3.684C179.529,3.684 213.091,19.849 236.278,45.551C192.879,52.71 172.794,72.615 159,99.215C146.468,123.38 146.252,137.915 137.48,160.019C126.08,188.746 114.03,200.211 104.634,199.984C89.088,199.609 71.558,189.272 54.189,189.65C47.018,189.806 41.021,193.936 36.16,199.561ZM248.536,199.174C214.215,199.258 176.97,199.346 176.56,199.378C186.615,192.513 198.247,183.582 207.024,164.062C216.156,143.754 211.04,132.708 217.326,112.177C222.839,94.172 230.759,85.487 235.943,84.801C238.171,104.105 252.982,112.832 267.962,115.032C268.568,120.051 268.88,125.16 268.88,130.342C268.88,155.713 261.404,179.353 248.536,199.174ZM113.959,102.26C112.695,98.729 110.927,94.557 109.7,92.03C108.824,90.227 107.59,88.62 106.48,86.95C106.755,89.338 106.627,91.754 105.79,94.07C103.35,86.5 99.99,79.14 94.95,72.93C91.9,69.56 88.03,67.11 84.09,64.92C85.1,67.25 86.19,69.55 87.13,71.9C89.01,77.31 88.79,83.17 87.88,88.75C86.59,93.78 81.09,106.005 80.42,109.87C79.85,104.71 78.2,99.67 74.78,95.69C74.72,96.52 74.61,98.19 74.55,99.02C74.27,102.02 74.101,105.102 72.9,107.94C71.321,111.674 65.265,114.449 61.5,124.73C59.666,129.739 61.22,135.46 62.13,140.72C58.78,137.93 57.847,132.27 57.327,128.2C56.967,128.15 54.27,139.84 56.47,144.72C57.72,147.389 58.764,150.147 59.092,153.09L59.1,153.16C57.244,152.141 55.85,150.13 54.38,148.47C53.31,154.49 56.95,159.77 60.12,164.52C67.382,174.254 79.437,180.594 91.61,180.389C91.342,180.117 80.682,169.261 77.654,165.14C74.645,161.046 74.711,155.25 75.43,150.3C76.179,145.143 78.81,139.21 82.15,134.2C84.119,131.172 93.271,118.668 95.65,111.266C97.625,105.119 97.456,96.165 96.42,89.79C100.19,94.574 104.445,104 105.658,110.118C108.997,126.969 101.308,134.543 99.34,137.78C93.829,146.846 97.244,155.171 99.03,158.08C105.29,155.16 109.82,149.88 113.12,143.94C114.526,148.149 115.624,152.914 113.721,158.405C112.016,163.326 101.148,169.214 96.494,173.97C94.979,175.519 92.738,180.31 92.718,180.353L92.69,180.354L91.949,180.382L91.779,180.386L91.61,180.389L91.615,180.394L91.949,180.382C92.196,180.375 92.443,180.366 92.69,180.354L92.718,180.353L92.718,180.353C94.406,180.269 96.095,180.058 97.77,179.71C108.47,176.87 124.14,168.979 125.58,154.07C124.109,155.332 122.727,156.433 120.91,156.89C126.373,146.39 128.608,139.411 126.163,126.66C125.275,122.03 122.47,116.85 120.48,112.86C119.64,119.93 119.14,127.5 114.63,133.37C114.87,131.62 115.13,129.88 115.38,128.14L115.42,127.961C117.117,120.385 116.933,112.451 114.83,104.98C114.64,104.38 114.205,102.997 114.08,102.6L113.959,102.26Z" style="fill:white;"/>
    </g>
</svg>
