<?xml version="1.0" encoding="UTF-8" standalone="no"?>
<!DOCTYPE svg PUBLIC "-//W3C//DTD SVG 1.1//EN" "http://www.w3.org/Graphics/SVG/1.1/DTD/svg11.dtd">
<svg width="100%" height="100%" viewBox="0 0 318 257" version="1.1" xmlns="http://www.w3.org/2000/svg" xmlns:xlink="http://www.w3.org/1999/xlink" xml:space="preserve" style="fill-rule:evenodd;clip-rule:evenodd;stroke-linejoin:round;stroke-miterlimit:1.41421;">
    <g>
        <g transform="matrix(1,0,0,1,-3.89403,-6.30191)">
            <circle cx="146.116" cy="136.644" r="126.658" style="fill:rgb(71,178,56);"/>
        </g>
        <g transform="matrix(1.04096,0,0,1.2932,-7.75155,-60.613)">
            <path d="M26.799,226.27C26.799,226.27 37.283,193.911 59.504,193.522C76.189,193.23 93.029,201.223 107.964,201.514C116.99,201.689 128.565,192.824 139.517,170.609C147.944,153.517 148.151,142.277 160.19,123.591C173.542,102.867 193.028,87.398 235.377,81.97C292.331,74.67 309.416,87.816 310.486,110.644C310.985,121.302 296.659,134.654 277.309,136.092C259.897,137.386 236.876,131.766 234.105,112.445C229.125,112.975 221.517,119.692 216.221,133.615C210.182,149.491 215.097,158.032 206.325,173.736C197.893,188.83 186.719,195.736 177.059,201.045C177.789,201 299.976,200.804 300.738,200.759C301.211,212.015 291.765,226.197 269.561,226.267C269.152,226.268 269.296,226.27 269.296,226.27L26.799,226.27Z" style="fill:white;"/>
        </g>
        <path d="M28.942,226.27C28.942,226.27 39.391,194.826 56.85,196.32C73.68,197.76 89.02,206.8 106.01,207.2C117.7,207.03 130.48,192.825 140.51,170.61C148.377,153.185 156.803,114.397 168.842,95.711C182.193,74.986 201.811,56.678 244.16,51.25C249.225,50.601 274.883,47.854 285.741,51.819C296.6,55.784 309.664,62.394 309.28,83.21C309.107,92.619 294.833,110.261 271.911,108.552C254.5,107.254 240.096,94.964 241.39,75.81C236.41,76.34 223.8,77.868 212.48,104.38C205.775,120.082 208.292,149.956 199.52,165.66C191.088,180.754 178.554,193.508 147.77,206.39C147.655,206.389 297.133,206.005 297.224,206C297.697,217.256 278.371,226.239 269.561,226.267C269.152,226.268 269.296,226.27 269.296,226.27L28.942,226.27Z" style="fill:rgb(61,130,3);"/>
        <path d="M126.163,126.66C128.608,139.411 126.373,146.39 120.91,156.89C122.46,155.94 124.01,155 125.58,154.07C124.14,168.979 108.47,176.87 97.77,179.71C83.65,182.64 68.61,175.9 60.12,164.52C56.95,159.77 53.31,154.49 54.38,148.47C55.85,150.13 57.244,152.141 59.1,153.16L59.092,153.09C58.764,150.147 57.72,147.389 56.47,144.72C54.27,139.84 56.967,128.15 57.327,128.2C57.847,132.27 58.78,137.93 62.13,140.72C61.22,135.46 59.666,129.739 61.5,124.73C65.265,114.449 71.321,111.674 72.9,107.94C74.101,105.102 74.27,102.02 74.55,99.02C74.61,98.19 74.72,96.52 74.78,95.69C78.2,99.67 79.85,104.71 80.42,109.87C81.09,106.005 86.59,93.78 87.88,88.75C88.79,83.17 89.01,77.31 87.13,71.9C86.19,69.55 85.1,67.25 84.09,64.92C88.03,67.11 91.9,69.56 94.95,72.93C99.99,79.14 103.35,86.5 105.79,94.07C106.01,91.7 106.24,89.32 106.48,86.95C107.59,88.62 108.824,90.227 109.7,92.03C110.967,94.638 112.81,99 114.08,102.6C113.964,102.272 114.08,102.6 114.08,102.6C114.205,102.997 114.64,104.38 114.83,104.98C116.933,112.451 117.117,120.385 115.42,127.961L115.38,128.14C115.13,129.88 114.87,131.62 114.63,133.37C119.14,127.5 119.64,119.93 120.48,112.86C122.47,116.85 125.275,122.03 126.163,126.66Z" style="fill:rgb(235,201,15);"/>
        <path d="M126.163,126.66C128.608,139.411 126.373,146.39 120.91,156.89C122.727,156.433 124.109,155.332 125.58,154.07C124.14,168.979 108.47,176.87 97.77,179.71C83.65,182.64 68.61,175.9 60.12,164.52C56.95,159.77 53.31,154.49 54.38,148.47C55.85,150.13 57.244,152.141 59.1,153.16L59.092,153.09C58.764,150.147 57.72,147.389 56.47,144.72C54.27,139.84 56.967,128.15 57.327,128.2C57.847,132.27 58.78,137.93 62.13,140.72C61.22,135.46 59.666,129.739 61.5,124.73C65.265,114.449 71.321,111.674 72.9,107.94C74.101,105.102 74.27,102.02 74.55,99.02C74.61,98.19 74.72,96.52 74.78,95.69C78.2,99.67 79.85,104.71 80.42,109.87C81.09,106.005 86.59,93.78 87.88,88.75C88.79,83.17 89.01,77.31 87.13,71.9C86.19,69.55 85.1,67.25 84.09,64.92C88.03,67.11 91.9,69.56 94.95,72.93C99.99,79.14 103.35,86.5 105.79,94.07C106.627,91.754 106.755,89.338 106.48,86.95C107.59,88.62 108.824,90.227 109.7,92.03C110.967,94.638 112.81,99 114.08,102.6C113.964,102.272 114.08,102.6 114.08,102.6C114.205,102.997 114.64,104.38 114.83,104.98C116.933,112.451 117.117,120.385 115.42,127.961L115.38,128.14C115.13,129.88 114.87,131.62 114.63,133.37C119.14,127.5 119.64,119.93 120.48,112.86C122.47,116.85 125.275,122.03 126.163,126.66ZM113.721,158.405C115.624,152.914 114.526,148.149 113.12,143.94C109.82,149.88 105.29,155.16 99.03,158.08C97.244,155.171 93.829,146.846 99.34,137.78C101.308,134.543 108.997,126.969 105.658,110.118C104.445,104 100.19,94.574 96.42,89.79C97.456,96.165 97.625,105.119 95.65,111.266C93.271,118.668 84.119,131.172 82.15,134.2C78.81,139.21 76.179,145.143 75.43,150.3C74.711,155.25 74.645,161.046 77.654,165.14C80.721,169.313 91.615,180.394 91.615,180.394L92.718,180.353C92.718,180.353 94.972,175.526 96.494,173.97C101.148,169.214 112.016,163.326 113.721,158.405Z" style="fill:rgb(235,136,15);"/>
    </g>
</svg>
